<svg xmlns="http://www.w3.org/2000/svg" xmlns:xlink="http://www.w3.org/1999/xlink" width="396" height="323.98388671875" viewBox="0 0 396 323.98388671875" fill="none"><g filter="url(#filter_0_66)"><path     fill="url(#linear_fill_0_66_0)"  d="M388 30.0001C388 20.0569 379.943 12.0001 370 12.0001L26.0001 12.0001C16.0569 12.0001 8.00006 20.0569 8.00006 30.0001L8.00006 292.82C8.00006 303.612 17.4345 311.984 28.1501 310.7L372.14 269.48C381.19 268.396 388 260.725 388 251.61L388 30.0001"></path></g><g mask="url(#mask-0_66)" opacity="0.6"><rect transform="matrix(0.8108362555503845, -0.5852729678153992, 0.7549975514411926, 0.6557276248931885, 51.170654296875, 6.989501953125)" x="0" y="0" width="76.55395924984516" height="427.71101581463654"   fill="url(#linear_fill_0_67)" fill-opacity="0.2"></rect></g><g mask="url(#mask-0_66)" opacity="0.6"><rect transform="matrix(0.8108362555503845, -0.5852729082107544, 0.7549975514411926, 0.6557278037071228, 136.279296875, -27.99267578125)" x="0" y="0" width="76.55395924984516" height="427.71092365185507"   fill="url(#linear_fill_0_68)" fill-opacity="0.14"></rect></g><g mask="url(#mask-0_66)" opacity="0.6"><rect transform="matrix(0.8108362555503845, -0.5852729082107544, 0.7549975514411926, 0.6557276844978333, 181.932373046875, -76.425537109375)" x="0" y="0" width="76.55395924984516" height="427.71092365185507"   fill="url(#linear_fill_0_69)" fill-opacity="0.09"></rect></g><defs><linearGradient id="linear_fill_0_66_0" x1="197.772216796875" y1="-50.525390625" x2="197.772216796875" y2="270.041259765625" gradientUnits="userSpaceOnUse"><stop offset="0" stop-color="#9EC8FF"  /><stop offset="1" stop-color="#97A5FC"  /></linearGradient><filter id="filter_0_66" x="0" y="0" width="396" height="315.98388671875" filterUnits="userSpaceOnUse" color-interpolation-filters="sRGB"><feFlood flood-opacity="0" result="feFloodId_0_66"/><feColorMatrix in="SourceAlpha" type="matrix" values="0 0 0 0 0 0 0 0 0 0 0 0 0 0 0 0 0 0 127 0" result="hardAlpha_0_66"/><feOffset dx="0" dy="-4"/><feGaussianBlur stdDeviation="4"/><feComposite in2="hardAlpha_0_66" operator="out"/><feColorMatrix type="matrix" values="0 0 0 0 0.3803921568627451 0 0 0 0 0.09019607843137255 0 0 0 0 0.03137254901960784 0 0 0 0.3 0"/><feBlend mode="normal" in2="feFloodId_0_66" result="dropShadow_1_0_66"/><feColorMatrix in="SourceAlpha" type="matrix" values="0 0 0 0 0 0 0 0 0 0 0 0 0 0 0 0 0 0 127 0" result="hardAlpha_0_66"/><feOffset dx="0" dy="4"/><feGaussianBlur stdDeviation="4"/><feComposite in2="hardAlpha_0_66" operator="out"/><feColorMatrix type="matrix" values="0 0 0 0 1 0 0 0 0 1 0 0 0 0 1 0 0 0 1 0"/><feBlend mode="normal" in2="feFloodId_0_66" result="dropShadow_1_0_66"/><feBlend mode="normal" in="SourceGraphic" in2="dropShadow_1_0_66" result="shape_0_66"/><feBlend mode="normal" in="SourceGraphic" in2="feFloodId_0_66" result="shape_0_66"/><feColorMatrix in="SourceAlpha" type="matrix" values="0 0 0 0 0 0 0 0 0 0 0 0 0 0 0 0 0 0 127 0" result="hardAlpha_0_66"/><feOffset dx="1.5" dy="1.5"/><feComposite in2="hardAlpha_0_66" operator="arithmetic" k2="-1" k3="1"/><feColorMatrix type="matrix" values="0 0 0 0 1 0 0 0 0 1 0 0 0 0 1 0 0 0 1 0"/><feBlend mode="normal" in2="shape_0_66" result="innerShadow_0_0_66" /><feColorMatrix in="SourceAlpha" type="matrix" values="0 0 0 0 0 0 0 0 0 0 0 0 0 0 0 0 0 0 127 0" result="hardAlpha_0_66"/><feOffset dx="-1.5" dy="-1.5"/><feComposite in2="hardAlpha_0_66" operator="arithmetic" k2="-1" k3="1"/><feColorMatrix type="matrix" values="0 0 0 0 1 0 0 0 0 1 0 0 0 0 1 0 0 0 1 0"/><feBlend mode="normal" in2="innerShadow_0_0_66" result="innerShadow_1_0_66" /></filter><mask id="mask-0_66" style="mask-type:alpha" maskUnits="userSpaceOnUse"><path     fill="url(#linear_fill_0_66_0)"  d="M388 30.0001C388 20.0569 379.943 12.0001 370 12.0001L26.0001 12.0001C16.0569 12.0001 8.00006 20.0569 8.00006 30.0001L8.00006 292.82C8.00006 303.612 17.4345 311.984 28.1501 310.7L372.14 269.48C381.19 268.396 388 260.725 388 251.61L388 30.0001"></path></mask><linearGradient id="linear_fill_0_67" x1="0" y1="213.85550790731827" x2="76.55395924984516" y2="213.85550790731827" gradientUnits="userSpaceOnUse"><stop offset="0" stop-color="#FFFFFF"  /><stop offset="1" stop-color="#FFFFFF" stop-opacity="0" /></linearGradient><linearGradient id="linear_fill_0_68" x1="0" y1="213.85546182592753" x2="76.55395924984516" y2="213.85546182592753" gradientUnits="userSpaceOnUse"><stop offset="0" stop-color="#FFFFFF"  /><stop offset="1" stop-color="#FFFFFF" stop-opacity="0" /></linearGradient><linearGradient id="linear_fill_0_69" x1="0" y1="213.85546182592753" x2="76.55395924984516" y2="213.85546182592753" gradientUnits="userSpaceOnUse"><stop offset="0" stop-color="#FFFFFF"  /><stop offset="1" stop-color="#FFFFFF" stop-opacity="0" /></linearGradient></defs></svg>