<?xml version="1.0" standalone="no"?><!DOCTYPE svg PUBLIC "-//W3C//DTD SVG 1.1//EN" "http://www.w3.org/Graphics/SVG/1.1/DTD/svg11.dtd"><svg t="1756884896937" class="icon" viewBox="0 0 1024 1024" version="1.1" xmlns="http://www.w3.org/2000/svg" p-id="4393" xmlns:xlink="http://www.w3.org/1999/xlink" width="32" height="32"><path d="M714.587429 672.585143a332.544 332.544 0 0 0 73.106285-209.462857C787.693714 278.253714 639.817143 128 457.874286 128 275.328 128 128 278.253714 128 463.122286c0 184.868571 147.328 335.140571 329.856 335.140571 84.114286 0 161.078857-31.853714 219.337143-85.467428L856.96 896 896 856.338286l-181.412571-183.771429zM457.856 742.4c-151.734857 0-274.889143-125.110857-274.889143-279.277714 0-154.148571 123.154286-279.259429 274.889143-279.259429 151.716571 0 274.870857 125.110857 274.870857 279.259429S609.572571 742.4 457.856 742.4z" fill="#999999" p-id="4394"></path></svg>